<!-- icon666.com - MILLIONS vector ICONS FREE --><svg id="Flat" viewBox="0 0 64 64" xmlns="http://www.w3.org/2000/svg"><circle cx="32" cy="32" fill="#fa6e96" r="31.75" style="fill: rgb(255, 5, 30);"></circle><g fill="#646487"><path d="m32 32h31.75a31.542 31.542 0 0 0 -4.267-15.867z" fill="#646487" style="fill: rgb(0, 0, 0);"></path><path d="m47.867 4.517a31.542 31.542 0 0 0 -15.867-4.267v31.75z" fill="#646487" style="fill: rgb(0, 0, 0);"></path><path d="m32 32h-31.75a31.542 31.542 0 0 0 4.267 15.867z" fill="#646487" style="fill: rgb(0, 0, 0);"></path><path d="m47.867 59.483a31.963 31.963 0 0 0 11.616-11.616l-27.483-15.867z" fill="#646487" style="fill: rgb(0, 0, 0);"></path><path d="m32 32-15.867 27.483a31.542 31.542 0 0 0 15.867 4.267z" fill="#646487" style="fill: rgb(0, 0, 0);"></path><path d="m32 32-15.867-27.483a31.963 31.963 0 0 0 -11.616 11.616z" fill="#646487" style="fill: rgb(0, 0, 0);"></path></g><circle cx="32" cy="32" fill="#fff" r="22.75" style="fill: rgb(255, 0, 0);"></circle><path d="m35.857 39.25a6.88 6.88 0 0 0 2.871-13.138 6.683 6.683 0 0 0 .165-1.469 6.893 6.893 0 0 0 -13.786 0 6.683 6.683 0 0 0 .165 1.469 6.88 6.88 0 0 0 2.871 13.138 6.778 6.778 0 0 0 2.107-.343v3.843h-2.25a1.75 1.75 0 0 0 0 3.5h8a1.75 1.75 0 0 0 0-3.5h-2.25v-3.843a6.778 6.778 0 0 0 2.107.343z" fill="#646487" style="fill: rgb(0, 0, 0);"></path></svg>